<?xml version="1.0" encoding="UTF-8"?>
<svg viewBox="0 0 33 40" version="1.1" xmlns="http://www.w3.org/2000/svg" xmlns:xlink="http://www.w3.org/1999/xlink">
    <defs>
        <linearGradient x1="-17.2767857%" y1="151.683408%" x2="121.216518%" y2="19.1034226%" id="linearGradient-1">
            <stop stop-color="#311193" offset="0%"></stop>
            <stop stop-color="#A30593" offset="50%"></stop>
            <stop stop-color="#ED5050" offset="100%"></stop>
        </linearGradient>
        <path d="M33,24.9052341 L30.9739783,37.6447101 L12.2788749,40 L12.2788749,40 4.1454574,35.5494845 L4.1405279,35.4627963 4.09517657,34.7306758 L4.06239543,34.2050305 3.96750269,32.6643462 L3.94186932,32.2590136 3.88912375,31.4008012 L3.86299743,30.9697248 3.80828005,30.103369 L3.7922592,29.843042 3.76169634,29.3378866 L3.74641491,29.0956853 3.71807033,28.6315098 L0,28.0567413 L1.67405593,17.9801668 L3.01561753,17.2769423 L3.00378675,17.0930584 2.97889281,16.6893019 L2.95005527,16.2219741 2.89114783,15.2799632 L2.87759172,15.053786 2.83815577,14.4141328 L2.79231148,13.6743942 2.69963701,12.177842 L2.69347514,12.0790701 2.68928507,12.0176003 L2.68115141,11.8938727 2.66685588,11.6540356 L2.62889878,11.0451172 2.56284357,9.97044723 L2.53967495,9.59742563 2.51601338,9.21547252 L2.47805629,8.604978 2.44552163,8.07618047 L9.63001165,0.038615617 L29.974277,0 L31.1768269,13.2454193 L28.7453543,14.2171143 L29.4544619,24.3654036 L33,24.9052341 Z M20.529517,27.1271486 L20.1947862,22.254423 L25.6461784,21.8417769 L25.2895984,16.6624239 L19.8323069,16.9787778 L19.3050841,9.296314 L26.4421472,9.06774161 L26.0709282,4 L14.1923555,4.1745904 L15.0505947,17.2462561 L12.76101,17.3785363 L12,22.8652463 L15.4032419,22.6074944 L16.085376,33 L27.1668874,31.7766514 L28,26.437784 L20.529517,27.1271486 Z" id="g"></path>
    </defs>
    <g stroke-width="1" fill="none" fill-rule="evenodd">
        <g transform="translate(-315, -124)">
            <g transform="translate(315, 124)">
                <mask fill="white">
                    <use xlink:href="#g"></use>
                </mask>
                <use fill="url(#linearGradient-1)" xlink:href="#g"></use>
            </g>
        </g>
    </g>
</svg>