<?xml version="1.0" encoding="UTF-8"?>
<svg viewBox="0 0 50 58" xmlns="http://www.w3.org/2000/svg">
<g transform="translate(-2504, -317)"><g transform="translate(2504, 317)" fill="#333">
<path d="M50,36.1 L46.9,54.6 L18.6,58 L6.3,51.6 L5.6,41.5 L0,40.7 L2.5,26.1 L4.6,25.1 L3.7,11.7 L14.6,0.1 L45.4,0 L47.2,19.2 L43.6,20.6 L44.6,35.3 L50,36.1 Z M31.4,41.1 L30.8,33.7 L40,33.1 L39.4,25.2 L30.2,25.7 L29.3,14 L41.4,13.7 L40.7,6 L20.7,6.3 L22.1,26.1 L18.3,26.3 L17,34.6 L22.7,34.2 L23.9,50 L42.6,48.1 L44,40 L31.4,41.1 Z"></path></g></g>
</svg>