<?xml version="1.0" encoding="utf-8"?>
<svg version="1.1" xmlns="http://www.w3.org/2000/svg" x="0" y="0" viewBox="0 0 76.34 40.53" enable-background="new 0 0 76.34 40.53" xml:space="preserve">
<g>
	<path fill="#CCC" d="M73.17,14.96c0-0.03-0.01-0.07-0.01-0.1l-0.01-0.05c-0.25-2.02-0.53-3.01-1.58-4.48
		c-0.02-0.93,0-5.82,0.01-7.32v-0.2L70.1,1.68c-1.09-0.8-2.17-1.2-3.3-1.23c-0.28,0-0.54,0.01-0.79,0.06
		c-0.2,0.03-0.38,0.08-0.48,0.12l-1.22,0.3l-0.04-0.31l-20,0.03L43.7,0.91l-0.08-0.27l-7.06,0.02l-4.09,1.6
		c-2.01-1.6-4.36-1.59-5.77-1.58L7.56,0.71h-0.1L1.94,6.5L1.88,6.59L2.05,9.2c0,0.09,0.01,0.17,0.02,0.26l0.11,1.7
		c0.01,0.2,0.03,0.42,0.04,0.58l0.09,1.29l-0.98,0.48L0,21.02l2.86,0.42l0.06,0.85c0,0,0.04,0.62,0.06,0.92l0.16,2.36
		c0.02,0.31,0.03,0.52,0.04,0.59l0.03,0.16l6.25,3.19l0.06,0.03l19.44-2.15c1.11-0.12,2.17-0.4,3.13-0.82l1.68,0.28h0.02l8.37-0.93
		l0.01-0.2c0,0,0-0.07,0.01-0.15l0.89,0.26l22.22-2.47l0.18-0.02l0.04-0.21l2.27,0.11h0.01c0.37,0.02,0.58,0.01,0.7,0
		c1.27-0.11,2.38-0.7,3.21-1.71C72.94,20,73.47,17.67,73.17,14.96"/>
	<polygon fill="#FFF" points="16.22,21.49 15.93,17.76 20.58,17.44 20.28,13.47 15.62,13.71 15.17,7.82 21.26,7.65 20.95,3.76 
		10.81,3.9 11.54,13.92 9.59,14.02 8.94,18.22 11.84,18.03 12.43,26 21.88,25.06 22.59,20.97"/>
	<path fill="#FFF" d="M31.14,17.8c0.15,1.72-1,3.03-2.47,3.07l-0.49-5.63C29.61,15.11,31,16.2,31.14,17.8 M28.88,24.36
		c3.29-0.33,6.14-2.33,5.77-6.35c-0.16-1.75-1.08-3.85-2.6-4.57c1.22-1.09,1.68-2.48,1.52-4.26c-0.15-1.67-0.94-3.43-2.2-4.47
		c-1.22-1.02-2.84-1.05-4.24-1.04l-3.6,0.05l1.75,20.99L28.88,24.36z M30.25,9.38c0.14,1.54-0.98,2.62-2.34,2.69l-0.43-5.01
		C28.85,6.94,30.12,7.9,30.25,9.38"/>
	<polygon fill="#FFF" points="60.13,17.85 59.79,14.77 62.98,14.55 62.61,11.26 59.42,11.43 58.87,6.56 63.07,6.44 62.69,3.21 
		55.72,3.3 56.63,11.57 55.44,11.63 55.17,15.08 57,14.95 57.71,21.5 63.9,20.89 64.24,17.51"/>
	<polygon fill="#FFF" points="54.79,6.68 54.47,3.32 45.34,3.44 45.64,6.95 48.81,6.86 50.4,22.23 53.39,21.93 51.79,6.77"/>
	<path fill="#FFF" d="M47.03,15.61l-1.18,0.08L42.16,3.48l-3.41,0.04l-1.32,12.75l-1.2,0.08l-0.39,3.52l1.22-0.1l-0.39,3.81
		l3.36-0.32l0.28-3.76l3.21-0.27l1.01,3.58l3.36-0.33l-1.06-3.52l1.15-0.1L47.03,15.61z M40.56,16.06l0.18-4.63l0.06-2.96h0.04
		l0.65,2.92l1.18,4.53L40.56,16.06z"/>
	<path fill="#FFF" d="M69.53,6.78c-0.5-0.45-1.06-0.8-1.64-0.79c-0.78,0-1.2,0.64-1.09,1.68c0.29,2.81,4.1,2.86,4.6,7.43
		c0.33,3.02-0.7,5.4-3.05,5.58c-0.72,0.06-1.65-0.18-2.3-0.71c0,0-0.07-3.07-0.07-3.09c0.56,0.4,1.12,0.64,1.77,0.6
		c0.82-0.05,1.38-0.82,1.26-1.96c-0.14-1.32-0.97-1.78-1.75-2.44c-1.62-1.27-2.67-2.53-2.93-5.05C64.05,5.31,65,2.99,67.18,3.01
		c0.81,0.01,1.55,0.3,2.29,0.84L69.53,6.78z"/>
	<path fill="#CCC" d="M76.34,1.91c0,1.07-0.86,1.92-1.96,1.92s-1.97-0.85-1.97-1.92S73.28,0,74.39,0
		C75.48-0.01,76.34,0.83,76.34,1.91 M72.9,1.91c0,0.85,0.64,1.53,1.49,1.53c0.83,0.01,1.46-0.68,1.46-1.51
		c0-0.85-0.63-1.54-1.48-1.54C73.54,0.38,72.9,1.07,72.9,1.91 M74.08,2.9h-0.44V0.98c0.17-0.02,0.42-0.06,0.73-0.06
		c0.36,0,0.52,0.06,0.65,0.15c0.12,0.08,0.2,0.22,0.2,0.41c0,0.23-0.17,0.39-0.39,0.46v0.02c0.18,0.06,0.28,0.21,0.34,0.46
		c0.06,0.29,0.1,0.4,0.14,0.47h-0.47c-0.06-0.07-0.09-0.23-0.15-0.47c-0.03-0.2-0.15-0.29-0.4-0.29h-0.21
		C74.08,2.13,74.08,2.9,74.08,2.9z M74.09,1.82h0.21c0.24,0,0.44-0.08,0.44-0.28c0-0.17-0.13-0.29-0.41-0.29
		c-0.12,0-0.2,0.01-0.24,0.02V1.82z"/>

	<path fill="#CCC" d="M8.67,37.18H6.98l-0.36,1.11H6.03l1.52-4.66H8.1l1.52,4.66H9.03L8.67,37.18z M8.53,36.68l-0.7-2.3 l-0.7,2.3H8.53z"/>
	<path fill="#CCC" d="M45.83,34.03c0.45,0,0.81,0.22,1.15,0.7l0.42-0.34c-0.41-0.58-0.92-0.85-1.58-0.85
		c-1.15,0-1.99,1.02-1.99,2.45s0.82,2.4,2.04,2.4c0.64,0,1.11-0.26,1.52-0.84l-0.4-0.37c-0.28,0.48-0.63,0.71-1.11,0.71
		c-0.9,0-1.47-0.74-1.47-1.9C44.4,34.83,44.98,34.03,45.83,34.03z"/>
	<path fill="#CCC" d="M49.29,34.46c-0.99,0-1.66,0.79-1.66,1.95c0,1.17,0.67,1.96,1.66,1.96s1.66-0.79,1.66-1.96
		C50.94,35.26,50.27,34.46,49.29,34.46z M49.28,37.88c-0.63,0-1.09-0.62-1.09-1.46s0.46-1.46,1.08-1.46c0.64,0,1.1,0.61,1.1,1.46
		S49.91,37.88,49.28,37.88z"/>
	<path fill="#CCC" d="M54.84,34.46c-0.45,0-0.81,0.21-1.07,0.64c-0.16-0.4-0.48-0.64-0.87-0.64c-0.35,0-0.66,0.15-0.88,0.42
		l-0.08-0.33H51.5v3.73h0.53v-2.37c0-0.5,0.37-0.95,0.76-0.95c0.4,0,0.67,0.38,0.67,0.95v2.37h0.53v-2.37
		c0-0.53,0.33-0.95,0.76-0.95c0.41,0,0.68,0.37,0.68,0.95v2.37h0.53v-2.37C55.97,35.04,55.53,34.46,54.84,34.46z"/>
	<path fill="#CCC" d="M58.39,34.46c-0.44,0-0.76,0.13-1.05,0.44l-0.08-0.35h-0.47v4.67h0.53v-1.37
		c0.31,0.37,0.64,0.53,1.07,0.53c0.98,0,1.65-0.79,1.65-1.96C60.05,35.26,59.37,34.46,58.39,34.46z M58.39,37.88
		c-0.63,0-1.08-0.62-1.08-1.46s0.46-1.46,1.08-1.46c0.63,0,1.1,0.62,1.1,1.46C59.48,37.27,59.02,37.88,58.39,37.88z"/>
	<path fill="#CCC" d="M63.1,34.9c-0.3-0.31-0.6-0.44-1.05-0.44c-0.98,0-1.66,0.79-1.66,1.95s0.67,1.96,1.65,1.96
		c0.43,0,0.76-0.16,1.05-0.5l0.08,0.41h0.47v-3.73h-0.47L63.1,34.9z M62.06,37.88c-0.63,0-1.09-0.62-1.09-1.46
		c0-0.83,0.46-1.46,1.08-1.46c0.63,0,1.09,0.61,1.09,1.46S62.68,37.88,62.06,37.88z"/>
	<path fill="#CCC" d="M66.08,34.46c-0.39,0-0.8,0.15-1.02,0.38l-0.07-0.3h-0.47v3.73h0.53v-2.35c0-0.52,0.46-0.98,0.96-0.98
		c0.55,0,0.89,0.38,0.89,0.99v2.33h0.53v-2.3C67.43,35.07,66.88,34.46,66.08,34.46z"/>
	<path fill="#CCC" d="M70.19,34.45l-0.94,2.9l-0.99-2.9h-0.55L69,38.09l-0.08,0.23c-0.1,0.28-0.2,0.37-0.41,0.37
		c-0.15,0-0.26-0.05-0.38-0.15l-0.25,0.38c0.18,0.17,0.41,0.27,0.66,0.27c0.4,0,0.72-0.24,0.86-0.68l1.34-4.06
		C70.74,34.45,70.19,34.45,70.19,34.45z"/>
	<polygon fill="#CCC" points="35.38,39.16 18.21,39.16 19.58,40.53"/>
	<path fill="#CCC" d="M19.8,33.62v0.21c-0.32-0.2-0.6-0.32-1-0.32c-1.2,0-2.12,1.1-2.12,2.44c0,1.35,0.91,2.44,2.12,2.44
		c0.39,0,0.68-0.12,1-0.32v0.21h1.06v-4.66C20.86,33.62,19.8,33.62,19.8,33.62z M18.8,37.28c-0.59,0-1.03-0.58-1.03-1.32
		c0-0.74,0.43-1.32,1.03-1.32c0.59,0,1.01,0.58,1.01,1.32C19.82,36.69,19.4,37.28,18.8,37.28z"/>
	<path fill="#CCC" d="M28.27,33.62v2.74c0,0.51-0.35,0.95-0.87,0.95c-0.51,0-0.87-0.43-0.87-0.95v-2.74h-1.06v2.74
		c0,1.12,0.77,2.04,1.89,2.04c0.52,0,0.9-0.29,0.9-0.29v0.17h1.06v-4.66H28.27z"/>
	<path fill="#CCCCCC" d="M38.13,38.28v-2.74c0-0.51,0.35-0.95,0.87-0.95c0.51,0,0.87,0.43,0.87,0.95v2.74h1.06v-2.74
		c0-1.12-0.77-2.04-1.89-2.04c-0.52,0-0.9,0.29-0.9,0.29v-0.17h-1.07v4.66H38.13z"/>
	<path fill="#CCC" d="M13.64,38.28v-1.81h0.78l1.35,1.81h1.38l-1.64-2.18c0.51-0.37,0.85-0.96,0.85-1.64
		c0-1.11-0.9-2.01-2.01-2.01h-1.83v5.82L13.64,38.28L13.64,38.28z M13.64,33.57h0.72c0.5,0,0.9,0.4,0.9,0.9
		s-0.41,0.9-0.9,0.9h-0.72V33.57z"/>
	<path fill="#CCC" d="M32.18,37.18c-0.1,0.06-0.21,0.11-0.35,0.11c-0.17,0-0.5-0.13-0.5-0.57v-1.99h0.9v-1.11h-0.9v-1.16
		h-1.06v1.16h-0.56v1.11h0.56v2.01c0,1.04,0.78,1.66,1.57,1.66c0.29,0,0.7-0.1,1.03-0.29L32.18,37.18z"/>
	<polygon fill="#CCC" points="23.49,35.81 25.3,33.62 23.82,33.62 22.55,35.25 22.55,32.08 21.46,32.08 21.46,38.28 
		22.55,38.28 22.55,36.37 24.11,38.28 25.59,38.28"/>
	<path fill="#CCC" d="M34.62,33.51c-1.22,0-2.1,1.08-2.1,2.45c0,1.44,1.1,2.45,2.21,2.45c0.56,0,1.27-0.19,1.87-1.04
		l-0.93-0.55c-0.72,1.06-1.93,0.52-2.07-0.54h3.05C36.91,34.61,35.83,33.51,34.62,33.51z M35.55,35.35h-1.9
		C33.87,34.26,35.34,34.2,35.55,35.35z"/>
</g>
</svg>
