<?xml version="1.0" encoding="utf-8"?>
<!-- Generator: Adobe Illustrator 19.2.1, SVG Export Plug-In . SVG Version: 6.00 Build 0)  -->
<svg version="1.1" id="Layer_1" xmlns="http://www.w3.org/2000/svg" xmlns:xlink="http://www.w3.org/1999/xlink" x="0px" y="0px"
	 viewBox="0 0 292 113" style="enable-background:new 0 0 292 113;" xml:space="preserve">
<style type="text/css">
	.st0{clip-path:url(#SVGID_2_);fill:none;stroke:#000000;stroke-width:0.624;}
	.st1{fill:#ffffff;}
</style>
<path d="M278,57.9c0-0.2,0-0.3-0.1-0.5c-0.9-7.6-1.9-11.3-6-16.9c-0.1-3.1,0-28.6,0-28.6l-5.3-4c-4-2.9-7.9-4.4-12.1-4.5
	c-1,0-1.9,0-2.8,0.2v0v0c-0.6,0.1-1.2,0.3-1.8,0.4l-5.7,1.4l-0.2-1.4l-75.6,0.2l-2.7,1.4c-0.2-0.5-0.4-1.4-0.4-1.4l-26.3,0
	l-15.8,6.3c-7.5-6.2-16.4-6.2-21.9-6.2L28.2,4.3L7.4,26.1c0,0,0,0,0,0.1c0,0.3,0.1,1.4,0.2,3c0,0,0,0.1,0,0.1c0,0,0.1,1,0.1,2
	c0.1,1.4,0.2,2.9,0.3,4.6c0,0.3,0,0.7,0.1,1c0,0,0,0.2,0,0.4c0.1,2,0.3,4.1,0.4,6.1c0.1,0.8,0.1,1.7,0.2,2.4c0,0,0.2,2.6,0.3,3.8
	C9,50,9,50.6,9.1,51.1L5.2,53L0.4,80.3l10.7,1.6c0,0.6,0.1,1.3,0.1,1.9c0,0.7,0.1,1.4,0.1,2.1c0,0,0.2,2.4,0.2,3.5
	c0,0,0.2,2.3,0.2,3.4c0,0,0.3,4.2,0.4,5.6c0.1,1.2,0.1,2,0.2,2.2c0,0.1,0,0.1,0,0.1l23.5,12l74-8.2c4.4-0.5,8.4-1.6,11.9-3.2
	l6.6,1.1l31.1-3.5c0,0,0.1-1.2,0.1-1.7l4.3,1.2l84.7-9.4l0.2-0.9l9.5,0.4c-0.4,0,1.4,0.1,2.6,0C272.9,87.5,279.8,74.9,278,57.9"/>
<g>
	<defs>
		<rect id="SVGID_1_" x="0.1" y="0.7" width="291" height="112.3"/>
	</defs>
	<clipPath id="SVGID_2_">
		<use xlink:href="#SVGID_1_"  style="overflow:visible;"/>
	</clipPath>
	<path class="st0" d="M278,57.9c0-0.2,0-0.3-0.1-0.5c-0.9-7.6-1.9-11.3-6-16.9c-0.1-3.1,0-28.6,0-28.6l-5.3-4
		c-4-2.9-7.9-4.4-12.1-4.5c-1,0-1.9,0-2.8,0.2v0v0c-0.6,0.1-1.2,0.3-1.8,0.4l-5.7,1.4l-0.2-1.4l-75.6,0.2l-2.7,1.4
		c-0.2-0.5-0.4-1.4-0.4-1.4l-26.3,0l-15.8,6.3c-7.5-6.2-16.4-6.2-21.9-6.2L28.2,4.3L7.4,26.1c0,0,0,0,0,0.1c0,0.3,0.1,1.4,0.2,3
		c0,0,0,0.1,0,0.1c0,0,0.1,1,0.1,2c0.1,1.4,0.2,2.9,0.3,4.6c0,0.3,0,0.7,0.1,1c0,0,0,0.2,0,0.4c0.1,2,0.3,4.1,0.4,6.1
		c0.1,0.8,0.1,1.7,0.2,2.4c0,0,0.2,2.6,0.3,3.8C9,50,9,50.6,9.1,51.1L5.2,53L0.4,80.3l10.7,1.6c0,0.6,0.1,1.3,0.1,1.9
		c0,0.7,0.1,1.4,0.1,2.1c0,0,0.2,2.4,0.2,3.5c0,0,0.2,2.3,0.2,3.4c0,0,0.3,4.2,0.4,5.6c0.1,1.2,0.1,2,0.2,2.2c0,0.1,0,0.1,0,0.1
		l23.5,12l74-8.2c4.4-0.5,8.4-1.6,11.9-3.2l6.6,1.1l31.1-3.5c0,0,0.1-1.2,0.1-1.7l4.3,1.2l84.7-9.4l0.2-0.9l9.5,0.4
		c-0.4,0,1.4,0.1,2.6,0C272.9,87.5,279.8,74.9,278,57.9z"/>
</g>
<polyline class="st1" points="61.3,82.8 60.2,68.5 77.9,67.3 76.8,52.2 59,53.1 57.3,30.6 80.5,29.9 79.3,15.1 40.6,15.6 43.4,53.9 
	35.9,54.3 33.5,70.3 44.5,69.6 46.8,100 82.9,96.4 85.6,80.8 61.3,82.8 "/>
<path class="st1" d="M118.3,68.7c0.6,6.6-3.8,11.6-9.4,11.7L107,59C112.4,58.4,117.7,62.6,118.3,68.7 M109.6,93.8
	c12.6-1.2,23.4-8.9,22-24.3c-0.6-6.7-4.1-14.7-9.9-17.5c4.7-4.2,6.4-9.5,5.8-16.3c-0.6-6.4-3.6-13.1-8.4-17.1
	c-4.7-3.9-10.8-4-16.2-4l-13.8,0.2l6.7,80.2L109.6,93.8z M114.9,36.5c0.5,5.9-3.8,10-8.9,10.3l-1.7-19.1
	C109.5,27.2,114.4,30.9,114.9,36.5z"/>
<polyline class="st1" points="229,68.9 227.7,57.1 239.9,56.3 238.5,43.7 226.3,44.4 224.2,25.8 240.2,25.3 238.8,13 212.2,13.3 
	215.6,44.9 211.1,45.1 210.1,58.3 217.1,57.8 219.8,82.9 243.4,80.5 244.7,67.6 229,68.9 "/>
<polyline class="st1" points="208.6,26.2 207.4,13.4 172.5,13.9 173.7,27.2 185.8,26.9 191.9,85.6 203.3,84.5 197.1,26.6 
	208.6,26.2 "/>
<path class="st1" d="M179,60.4l-4.5,0.3L160.4,14l-13,0.2l-5,48.7l-4.6,0.3l-1.5,13.4l4.7-0.4l-1.5,14.6l12.8-1.3l1.1-14.4l12.3-1
	l3.9,13.7l12.8-1.3l-4.1-13.5l4.4-0.4L179,60.4 M154.3,62.1l0.7-17.7l0.2-11.3l0.2,0l2.5,11.2l4.5,17.3L154.3,62.1z"/>
<path class="st1" d="M264.9,26.6c-1.9-1.7-4.1-3-6.3-3c-3,0-4.6,2.4-4.2,6.4c1.1,10.7,15.7,10.9,17.6,28.4
	c1.3,11.5-2.7,20.6-11.7,21.3c-2.8,0.2-6.3-0.7-8.8-2.7c0,0-0.2-11.7-0.2-11.8c2.2,1.5,4.3,2.4,6.7,2.3c3.1-0.2,5.3-3.1,4.8-7.5
	c-0.5-5-3.7-6.8-6.7-9.3C250.1,45.8,246,41,245,31.3c-1.1-10.4,2.6-19.3,10.9-19.2c3.1,0,5.9,1.2,8.7,3.2L264.9,26.6"/>
</svg>
